<?xml version="1.0" standalone="no"?><!DOCTYPE svg PUBLIC "-//W3C//DTD SVG 1.1//EN"
    "http://www.w3.org/Graphics/SVG/1.1/DTD/svg11.dtd">
<svg t="1608280042191" class="icon" viewBox="0 0 1024 1024" version="1.1"
    xmlns="http://www.w3.org/2000/svg" p-id="8131" xmlns:xlink="http://www.w3.org/1999/xlink"
    width="128" height="128">
    <defs>
        <style type="text/css"></style>
    </defs>
    <path
        d="M512 804.571429c-160.914286 0-292.571429-131.657143-292.571429-292.571429s131.657143-292.571429 292.571429-292.571429 292.571429 131.657143 292.571429 292.571429S672.914286 804.571429 512 804.571429zM343.771429 380.342857c-20.48 0-36.571429 16.091429-36.571429 36.571429 0 20.48 16.091429 36.571429 36.571429 36.571429 20.48 0 36.571429-16.091429 36.571429-36.571429C380.342857 396.434286 364.251429 380.342857 343.771429 380.342857zM519.314286 380.342857c-20.48 0-36.571429 16.091429-36.571429 36.571429 0 20.48 16.091429 36.571429 36.571429 36.571429s36.571429-16.091429 36.571429-36.571429C555.885714 396.434286 539.794286 380.342857 519.314286 380.342857zM669.988571 377.417143c0-7.314286-5.851429-11.702857-11.702857-11.702857s-11.702857 5.851429-11.702857 11.702857l-57.051429 138.971429c-11.702857 14.628571-19.017143 33.645714-19.017143 52.662857 0 48.274286 39.497143 87.771429 87.771429 87.771429 48.274286 0 87.771429-39.497143 87.771429-87.771429 0-20.48-7.314286-38.034286-19.017143-54.125714L669.988571 377.417143z"
        p-id="8132"
        fill="#ff6c00"></path>
</svg>